{
	"asset":{
		"version":"2.0",
		"generator":"Houdini GLTF 2.0 Exporter"
	},
	"accessors":[
		{
			"bufferView":0,
			"componentType":5123,
			"count":3846,
			"type":"SCALAR",
			"min":[0
			],
			"max":[1555
			]
		},
		{
			"bufferView":1,
			"componentType":5126,
			"count":1556,
			"type":"VEC3",
			"min":[0,0,0
			],
			"max":[0,0,0
			]
		},
		{
			"bufferView":2,
			"componentType":5126,
			"count":1556,
			"type":"VEC3",
			"min":[-0.998897731,-0.999977887,-0.999541998
			],
			"max":[0.999607265,0.999674618,0.983249009
			]
		},
		{
			"bufferView":3,
			"componentType":5126,
			"count":1556,
			"type":"VEC3",
			"min":[-13.0705204,-0.00713312626,-11.9349365
			],
			"max":[25.9713116,144.402359,20.979454
			]
		},
		{
			"bufferView":4,
			"componentType":5126,
			"count":1556,
			"type":"VEC3",
			"min":[0,0,0
			],
			"max":[0,0,0
			]
		},
		{
			"bufferView":5,
			"componentType":5126,
			"count":1556,
			"type":"VEC3",
			"min":[1,1,1
			],
			"max":[1,1,1
			]
		},
		{
			"bufferView":6,
			"componentType":5126,
			"count":1556,
			"type":"VEC3",
			"min":[1,1,1
			],
			"max":[1,1,1
			]
		},
		{
			"bufferView":7,
			"componentType":5126,
			"count":1556,
			"type":"VEC2",
			"min":[0.0225030482,0.0230689645
			],
			"max":[0.9835006,0.954914987
			]
		},
		{
			"bufferView":8,
			"componentType":5126,
			"count":1556,
			"type":"SCALAR",
			"min":[1
			],
			"max":[1
			]
		},
		{
			"bufferView":9,
			"componentType":5126,
			"count":1556,
			"type":"VEC2",
			"min":[0.00499999989,0.00500005484
			],
			"max":[0.993417323,0.995000005
			]
		}
	],
	"buffers":[
		{
			"uri":"flower_lod1_data.bin",
			"byteLength":150844,
			"name":"main_buffer"
		}
	],
	"bufferViews":[
		{
			"buffer":0,
			"byteLength":7692,
			"target":34963
		},
		{
			"buffer":0,
			"byteOffset":7692,
			"byteLength":18672,
			"target":34962
		},
		{
			"buffer":0,
			"byteOffset":26364,
			"byteLength":18672,
			"target":34962
		},
		{
			"buffer":0,
			"byteOffset":45036,
			"byteLength":18672,
			"target":34962
		},
		{
			"buffer":0,
			"byteOffset":63708,
			"byteLength":18672,
			"target":34962
		},
		{
			"buffer":0,
			"byteOffset":82380,
			"byteLength":18672,
			"target":34962
		},
		{
			"buffer":0,
			"byteOffset":101052,
			"byteLength":18672,
			"target":34962
		},
		{
			"buffer":0,
			"byteOffset":119724,
			"byteLength":12448,
			"target":34962
		},
		{
			"buffer":0,
			"byteOffset":132172,
			"byteLength":6224,
			"target":34962
		},
		{
			"buffer":0,
			"byteOffset":138396,
			"byteLength":12448,
			"target":34962
		}
	],
	"nodes":[
		{
			"name":"geo1",
			"mesh":0
		}
	],
	"meshes":[
		{
			"primitives":[
				{
					"attributes":{
						"TEXCOORD_1":9,
						"_Alpha":8,
						"TEXCOORD_0":7,
						"_fbx_scale":6,
						"COLOR_0":5,
						"_fbx_rotation":4,
						"POSITION":3,
						"NORMAL":2,
						"_fbx_translation":1
					},
					"indices":0,
					"material":0
				}
			],
			"name":"material1"
		}
	],
	"materials":[
		{
			"name":"principledshader1",
			"pbrMetallicRoughness":{
				"metallicFactor":0,
				"roughnessFactor":0.300000012,
				"baseColorTexture":{
					"index":0
				}
			}
		}
	],
	"scenes":[
		{
			"nodes":[0
			]
		}
	],
	"textures":[
		{
			"source":0
		}
	],
	"images":[
		{
			"uri":"flower_Albedo.jpg",
			"mimeType":"image/jpeg"
		}
	],
	"scene":0
}
