{
	"asset":{
		"version":"2.0",
		"generator":"Houdini GLTF 2.0 Exporter"
	},
	"accessors":[
		{
			"bufferView":0,
			"componentType":5123,
			"count":192,
			"type":"SCALAR",
			"min":[0
			],
			"max":[44
			]
		},
		{
			"bufferView":1,
			"componentType":5126,
			"count":45,
			"type":"VEC3",
			"min":[-0.0396440253,-0.00242051249,0
			],
			"max":[0.0396440253,0.0915652215,0
			]
		},
		{
			"bufferView":2,
			"componentType":5126,
			"count":45,
			"type":"VEC3",
			"min":[0,0,1
			],
			"max":[0,0,1
			]
		},
		{
			"bufferView":3,
			"componentType":5126,
			"count":45,
			"type":"VEC3",
			"min":[0.100000001,0,0
			],
			"max":[0.100000001,0,0
			]
		},
		{
			"bufferView":4,
			"componentType":5126,
			"count":45,
			"type":"VEC2",
			"min":[0,0
			],
			"max":[0.5,0.5
			]
		},
		{
			"bufferView":5,
			"componentType":5121,
			"count":108,
			"type":"SCALAR",
			"min":[0
			],
			"max":[19
			]
		},
		{
			"bufferView":6,
			"componentType":5126,
			"count":20,
			"type":"VEC3",
			"min":[-0.99999547,-0.99999547,-0.566195011
			],
			"max":[0.99999547,0.99999547,0.577351511
			]
		},
		{
			"bufferView":7,
			"componentType":5126,
			"count":20,
			"type":"VEC3",
			"min":[-0.00170259061,-0.00170259061,0
			],
			"max":[0.00170259061,0.00170259061,0.0700000003
			]
		},
		{
			"bufferView":8,
			"componentType":5126,
			"count":20,
			"type":"VEC3",
			"min":[0.200000003,0,0
			],
			"max":[0.200000003,0,0
			]
		},
		{
			"bufferView":9,
			"componentType":5126,
			"count":20,
			"type":"SCALAR",
			"min":[0.000886528462
			],
			"max":[0.00170259061
			]
		},
		{
			"bufferView":10,
			"componentType":5126,
			"count":20,
			"type":"VEC2",
			"min":[0.511939585,0.00849246979
			],
			"max":[0.588182032,0.494676054
			]
		},
		{
			"bufferView":11,
			"componentType":5123,
			"count":156,
			"type":"SCALAR",
			"min":[0
			],
			"max":[27
			]
		},
		{
			"bufferView":12,
			"componentType":5126,
			"count":28,
			"type":"VEC3",
			"min":[-0.00197071279,-0.00197071279,0
			],
			"max":[0.00197071279,0.00197071279,0.0375901163
			]
		},
		{
			"bufferView":13,
			"componentType":5126,
			"count":28,
			"type":"SCALAR",
			"min":[0.00085544039
			],
			"max":[0.00197071279
			]
		},
		{
			"bufferView":14,
			"componentType":5126,
			"count":28,
			"type":"VEC3",
			"min":[-1,-1,-0.577350318
			],
			"max":[1,1,0.647910237
			]
		},
		{
			"bufferView":15,
			"componentType":5126,
			"count":28,
			"type":"VEC3",
			"min":[0.300000012,0,0
			],
			"max":[0.300000012,0,0
			]
		},
		{
			"bufferView":16,
			"componentType":5126,
			"count":28,
			"type":"VEC2",
			"min":[0.612613082,0.0103020668
			],
			"max":[0.687682509,0.489005685
			]
		},
		{
			"bufferView":17,
			"componentType":5123,
			"count":648,
			"type":"SCALAR",
			"min":[0
			],
			"max":[119
			]
		},
		{
			"bufferView":18,
			"componentType":5126,
			"count":120,
			"type":"VEC3",
			"min":[-0.00875132531,-0.00790463109,-0.00129881175
			],
			"max":[0.00875132531,0.00790463109,0.00348132849
			]
		},
		{
			"bufferView":19,
			"componentType":5126,
			"count":120,
			"type":"SCALAR",
			"min":[0.00116632122
			],
			"max":[0.00241251499
			]
		},
		{
			"bufferView":20,
			"componentType":5126,
			"count":120,
			"type":"VEC3",
			"min":[-0.995341241,-1,-0.998562932
			],
			"max":[0.995341241,1,0.993897021
			]
		},
		{
			"bufferView":21,
			"componentType":5126,
			"count":120,
			"type":"VEC3",
			"min":[0.400000006,0,0
			],
			"max":[0.400000006,0,0
			]
		},
		{
			"bufferView":22,
			"componentType":5126,
			"count":120,
			"type":"VEC2",
			"min":[0.709938705,0.0102285743
			],
			"max":[0.99049437,0.29078424
			]
		},
		{
			"bufferView":23,
			"componentType":5121,
			"count":48,
			"type":"SCALAR",
			"min":[0
			],
			"max":[14
			]
		},
		{
			"bufferView":24,
			"componentType":5126,
			"count":15,
			"type":"VEC3",
			"min":[-0.00638959184,-1.79803264e-05,0
			],
			"max":[0.00638959184,0.0283179805,0
			]
		},
		{
			"bufferView":25,
			"componentType":5126,
			"count":15,
			"type":"VEC3",
			"min":[0,0,-1
			],
			"max":[0,0,-1
			]
		},
		{
			"bufferView":26,
			"componentType":5126,
			"count":15,
			"type":"VEC3",
			"min":[0.5,0,0
			],
			"max":[0.5,0,0
			]
		},
		{
			"bufferView":27,
			"componentType":5126,
			"count":15,
			"type":"VEC2",
			"min":[0.713873029,0.312121987
			],
			"max":[0.89127779,0.489526749
			]
		},
		{
			"bufferView":28,
			"componentType":5121,
			"count":36,
			"type":"SCALAR",
			"min":[0
			],
			"max":[11
			]
		},
		{
			"bufferView":29,
			"componentType":5126,
			"count":12,
			"type":"VEC3",
			"min":[-0.000899999985,0,-3.93402498e-11
			],
			"max":[0.000899999985,0.0121999998,3.93402498e-11
			]
		},
		{
			"bufferView":30,
			"componentType":5126,
			"count":12,
			"type":"VEC3",
			"min":[-4.37113989e-08,-1.74938535e-16,-1
			],
			"max":[-4.37113883e-08,1.74938535e-16,-1
			]
		},
		{
			"bufferView":31,
			"componentType":5126,
			"count":12,
			"type":"VEC3",
			"min":[0.600000024,0,0
			],
			"max":[0.600000024,0,0
			]
		},
		{
			"bufferView":32,
			"componentType":5126,
			"count":12,
			"type":"VEC2",
			"min":[0.913583279,0.308923066
			],
			"max":[0.987104297,0.492725611
			]
		}
	],
	"buffers":[
		{
			"uri":"hibiscus_data.bin",
			"byteLength":13416,
			"name":"main_buffer"
		}
	],
	"bufferViews":[
		{
			"buffer":0,
			"byteLength":384,
			"target":34963
		},
		{
			"buffer":0,
			"byteOffset":384,
			"byteLength":540,
			"target":34962
		},
		{
			"buffer":0,
			"byteOffset":924,
			"byteLength":540,
			"target":34962
		},
		{
			"buffer":0,
			"byteOffset":1464,
			"byteLength":540,
			"target":34962
		},
		{
			"buffer":0,
			"byteOffset":2004,
			"byteLength":360,
			"target":34962
		},
		{
			"buffer":0,
			"byteOffset":2364,
			"byteLength":108,
			"target":34963
		},
		{
			"buffer":0,
			"byteOffset":2472,
			"byteLength":240,
			"target":34962
		},
		{
			"buffer":0,
			"byteOffset":2712,
			"byteLength":240,
			"target":34962
		},
		{
			"buffer":0,
			"byteOffset":2952,
			"byteLength":240,
			"target":34962
		},
		{
			"buffer":0,
			"byteOffset":3192,
			"byteLength":80,
			"target":34962
		},
		{
			"buffer":0,
			"byteOffset":3272,
			"byteLength":160,
			"target":34962
		},
		{
			"buffer":0,
			"byteOffset":3432,
			"byteLength":312,
			"target":34963
		},
		{
			"buffer":0,
			"byteOffset":3744,
			"byteLength":336,
			"target":34962
		},
		{
			"buffer":0,
			"byteOffset":4080,
			"byteLength":112,
			"target":34962
		},
		{
			"buffer":0,
			"byteOffset":4192,
			"byteLength":336,
			"target":34962
		},
		{
			"buffer":0,
			"byteOffset":4528,
			"byteLength":336,
			"target":34962
		},
		{
			"buffer":0,
			"byteOffset":4864,
			"byteLength":224,
			"target":34962
		},
		{
			"buffer":0,
			"byteOffset":5088,
			"byteLength":1296,
			"target":34963
		},
		{
			"buffer":0,
			"byteOffset":6384,
			"byteLength":1440,
			"target":34962
		},
		{
			"buffer":0,
			"byteOffset":7824,
			"byteLength":480,
			"target":34962
		},
		{
			"buffer":0,
			"byteOffset":8304,
			"byteLength":1440,
			"target":34962
		},
		{
			"buffer":0,
			"byteOffset":9744,
			"byteLength":1440,
			"target":34962
		},
		{
			"buffer":0,
			"byteOffset":11184,
			"byteLength":960,
			"target":34962
		},
		{
			"buffer":0,
			"byteOffset":12144,
			"byteLength":48,
			"target":34963
		},
		{
			"buffer":0,
			"byteOffset":12192,
			"byteLength":180,
			"target":34962
		},
		{
			"buffer":0,
			"byteOffset":12372,
			"byteLength":180,
			"target":34962
		},
		{
			"buffer":0,
			"byteOffset":12552,
			"byteLength":180,
			"target":34962
		},
		{
			"buffer":0,
			"byteOffset":12732,
			"byteLength":120,
			"target":34962
		},
		{
			"buffer":0,
			"byteOffset":12852,
			"byteLength":36,
			"target":34963
		},
		{
			"buffer":0,
			"byteOffset":12888,
			"byteLength":144,
			"target":34962
		},
		{
			"buffer":0,
			"byteOffset":13032,
			"byteLength":144,
			"target":34962
		},
		{
			"buffer":0,
			"byteOffset":13176,
			"byteLength":144,
			"target":34962
		},
		{
			"buffer":0,
			"byteOffset":13320,
			"byteLength":96,
			"target":34962
		}
	],
	"nodes":[
		{
			"children":[1,2,3,4,5,6
			],
			"name":"Root"
		},
		{
			"name":"petal",
			"mesh":0
		},
		{
			"name":"stamen_center",
			"mesh":1
		},
		{
			"name":"stamen_top",
			"mesh":2
		},
		{
			"name":"stamen_ring",
			"mesh":3
		},
		{
			"name":"bud_inner",
			"mesh":4
		},
		{
			"name":"bud_outer",
			"mesh":5
		}
	],
	"meshes":[
		{
			"primitives":[
				{
					"attributes":{
						"TEXCOORD_0":4,
						"COLOR_0":3,
						"NORMAL":2,
						"POSITION":1
					},
					"indices":0
				}
			],
			"name":"object_merge1"
		},
		{
			"primitives":[
				{
					"attributes":{
						"TEXCOORD_0":10,
						"_sweep":9,
						"COLOR_0":8,
						"NORMAL":6,
						"POSITION":7
					},
					"indices":5
				}
			],
			"name":"object_merge1"
		},
		{
			"primitives":[
				{
					"attributes":{
						"TEXCOORD_0":16,
						"COLOR_0":15,
						"NORMAL":14,
						"_sweep":13,
						"POSITION":12
					},
					"indices":11
				}
			],
			"name":"object_merge1"
		},
		{
			"primitives":[
				{
					"attributes":{
						"TEXCOORD_0":22,
						"COLOR_0":21,
						"NORMAL":20,
						"_sweep":19,
						"POSITION":18
					},
					"indices":17
				}
			],
			"name":"object_merge1"
		},
		{
			"primitives":[
				{
					"attributes":{
						"TEXCOORD_0":27,
						"COLOR_0":26,
						"NORMAL":25,
						"POSITION":24
					},
					"indices":23
				}
			],
			"name":"object_merge1"
		},
		{
			"primitives":[
				{
					"attributes":{
						"TEXCOORD_0":32,
						"COLOR_0":31,
						"NORMAL":30,
						"POSITION":29
					},
					"indices":28
				}
			],
			"name":"object_merge1"
		}
	],
	"scenes":[
		{
			"nodes":[0
			]
		}
	],
	"scene":0
}
